<?xml version="1.0" encoding="utf-8"?>
<!-- Generator: Adobe Illustrator 18.1.1, SVG Export Plug-In . SVG Version: 6.00 Build 0)  -->
<!DOCTYPE svg PUBLIC "-//W3C//DTD SVG 1.1//EN" "http://www.w3.org/Graphics/SVG/1.1/DTD/svg11.dtd">
<svg version="1.1" id="Ebene_1" xmlns="http://www.w3.org/2000/svg" xmlns:xlink="http://www.w3.org/1999/xlink" x="0px" y="0px"
	 width="80px" height="80px" viewBox="11.7 1338 80 80" enable-background="new 11.7 1338 80 80" xml:space="preserve">
<g>
	<path fill="#322D28" d="M51.7,1341.3c20.3,0,36.7,16.3,36.7,36.7s-16.3,36.7-36.7,36.7S15,1398.3,15,1378S31.7,1341.3,51.7,1341.3
		 M51.7,1338c-22,0-40,18-40,40s18,40,40,40s40-18,40-40S73.7,1338,51.7,1338L51.7,1338z"/>
</g>
<g id="Desktop">
	<g>
		<path fill="#322D28" d="M69.2,1356.3h-35c-2.1,0-3.9,1.7-3.9,3.9v29.1c0,2.1,1.7,3.9,3.9,3.9h13.6v3.9h-2.9c-0.5,0-1,0.4-1,1
			c0,0.5,0.4,1,1,1h13.6c0.5,0,1-0.4,1-1c0-0.5-0.4-1-1-1h-2.9v-3.9h13.6c2.1,0,3.9-1.7,3.9-3.9v-29.1
			C73.1,1358,71.3,1356.3,69.2,1356.3z M53.6,1397.1h-3.9v-3.9h3.9V1397.1z M71.1,1389.3c0,1.1-0.9,1.9-1.9,1.9h-35
			c-1.1,0-1.9-0.9-1.9-1.9v-1.9h38.9V1389.3z M71.1,1385.4H32.3v-25.3c0-1.1,0.9-1.9,1.9-1.9h35c1.1,0,1.9,0.9,1.9,1.9V1385.4z"/>
	</g>
</g>
<circle fill="#322D28" cx="35.5" cy="1361.6" r="0.7"/>
<circle fill="#322D28" cx="38.4" cy="1361.6" r="0.7"/>
<circle fill="#322D28" cx="41.3" cy="1361.6" r="0.7"/>
<path fill="#322D28" d="M44.2,1360.9h23.4c0.4,0,0.7,0.3,0.7,0.7c0,0.4-0.3,0.7-0.7,0.7H44.2c-0.4,0-0.7-0.3-0.7-0.7
	C43.5,1361.2,43.8,1360.9,44.2,1360.9z"/>
<path fill="#322D28" d="M71.2,1364.9H32.2c-0.4,0-0.7,0.3-0.7,0.7c0,0.4,0.3,0.7,0.7,0.7h38.9c0.4,0,0.7-0.3,0.7-0.7
	C71.9,1365.2,71.6,1364.9,71.2,1364.9z"/>
<path fill="#322D28" d="M51.7,1382.9c-1.3,0-2.5-0.3-3.5-0.9l1.5-0.9c0.6,0.2,1.3,0.4,2.1,0.4c3.2,0,5.8-2.6,5.8-5.8
	c0-0.7-0.1-1.4-0.4-2.1l0.9-1.5c0.6,1,0.9,2.3,0.9,3.5C58.9,1379.7,55.7,1382.9,51.7,1382.9z"/>
<polygon fill="#322D28" points="44.9,1382.6 50.2,1374.2 58.5,1368.9 53.2,1377.3 "/>
<circle fill="#322D28" cx="51.7" cy="1375.7" r="0.7"/>
<path fill="#322D28" d="M51.7,1370c-3.2,0-5.8,2.6-5.8,5.8c0,0.7,0.1,1.4,0.4,2.1l-0.9,1.5c-0.6-1-0.9-2.3-0.9-3.5
	c0-4,3.2-7.2,7.2-7.2c1.3,0,2.5,0.3,3.5,0.9l-1.5,0.9C53.1,1370.1,52.4,1370,51.7,1370z"/>
</svg>
