<?xml version="1.0" encoding="utf-8"?>
<!-- Generator: Adobe Illustrator 18.1.1, SVG Export Plug-In . SVG Version: 6.00 Build 0)  -->
<!DOCTYPE svg PUBLIC "-//W3C//DTD SVG 1.1//EN" "http://www.w3.org/Graphics/SVG/1.1/DTD/svg11.dtd">
<svg version="1.1" id="Ebene_1" xmlns="http://www.w3.org/2000/svg" xmlns:xlink="http://www.w3.org/1999/xlink" x="0px" y="0px"
	 width="280px" height="280px" viewBox="0 0 280 280" enable-background="new 0 0 280 280" xml:space="preserve">
<path fill="#FFFFFF" d="M140,8c35.3,0,68.4,13.7,93.3,38.7S272,104.7,272,140s-13.7,68.4-38.7,93.3C208.4,258.3,175.3,272,140,272
	s-68.4-13.7-93.3-38.7C21.7,208.4,8,175.3,8,140s13.7-68.4,38.7-93.3S104.7,8,140,8 M140,0C62.7,0,0,62.7,0,140s62.7,140,140,140
	s140-62.7,140-140S217.3,0,140,0L140,0z"/>
<path fill="#FFFFFF" d="M177.2,158c3.1-4.9,2-11.8,2-11.8h72.3c0,33.2-16.8,62.6-42.3,79.9L169,166.5
	C169,166.5,173.8,163.5,177.2,158z"/>
<g>
	<path fill="#FFFFFF" d="M137.6,110.3c14.6,0.8,26.1,12.8,26.1,27.6h69c0-52.9-42.5-95.8-95.1-96.6V110.3z"/>
	<path fill="#FFFFFF" d="M136.1,165.5c-15.3,0-27.6-12.4-27.6-27.6c0-14.8,11.6-26.8,26.1-27.6v-69C82,42.1,39.5,85,39.5,137.9
		c0,53.4,43.3,96.6,96.6,96.6c19.6,0,37.9-5.8,53.1-15.9l-38-57.6C146.9,163.9,141.7,165.5,136.1,165.5z"/>
</g>
</svg>
