<?xml version="1.0" encoding="utf-8"?>
<!-- Generator: Adobe Illustrator 18.1.1, SVG Export Plug-In . SVG Version: 6.00 Build 0)  -->
<!DOCTYPE svg PUBLIC "-//W3C//DTD SVG 1.1//EN" "http://www.w3.org/Graphics/SVG/1.1/DTD/svg11.dtd">
<svg version="1.1" xmlns="http://www.w3.org/2000/svg" xmlns:xlink="http://www.w3.org/1999/xlink" x="0px" y="0px" width="610.9px"
	 height="111.2px" viewBox="0 0 610.9 111.2" enable-background="new 0 0 610.9 111.2" xml:space="preserve">
<g id="EQS">
	<g>
		<path fill="#FFFFFF" d="M290.2,32.8c-3.7,0-30,0-30,0c-3.5,0-6.3-2.9-6.3-6.4s2.8-6.4,6.3-6.4c0,0,49.9,0,55,0c4.8,0,5-20,5-20
			h-64.9c-25.2,0-30.2,11.5-30.2,26.4c0,18.9,4.7,26.4,30.1,26.4c22.3,0,35,0,35,0c3.4,0,6.1,3,6.1,6.4c0,3.4-2.7,6.4-6.1,6.4h-69.1
			v20l74.1,0c25,0,30-10.2,30-26.4C325.3,40.4,315.2,32.8,290.2,32.8z"/>
	</g>
	<path fill="#FFFFFF" d="M215.2,35.6c0-27.1-17.3-35.6-33-35.6h-37.4c-15.8,0-34,9-34.6,35.6v15c0.1,5.9,1.1,10.8,2.6,15H40
		c-8.7,0-10-3.3-10-12.8l66.9,0v-20H30C30,23,32.9,20,40,20c1.6,0,57,0,57,0c5.1,0,5.1-20,5.1-20H22.4C10.1,0,0,10.6,0,35.6v15
		c0,25.1,10,35,22.4,35h157.7V63.8c-3.2,1.8-8.3,1.8-14.9,1.8h-5c-15,0-20-3.2-20-14.9v-15c0-11.8,5-15.7,20-15.7h5
		c15,0,20.1,4.9,20.1,15.9v75.3l30,0L215.2,35.6z"/>
	<polygon fill="#FF6400" points="380.6,52.9 342.8,52.9 323.9,85.7 361.7,85.7 	"/>
</g>
<g id="Divisionen">
	<g>
		<path fill="#FFFFFF" d="M425.8,73.9c0,8.9-2.9,12.1-11.1,12.1h-18.3c-8.9,0-11.7-4-11.7-12.3v-9c0-8.3,2.8-12.3,11.7-12.3h16.7
			c5.9,0,12.2,1.4,12.2,9v1.2h-4.2c0-6.1-1.9-6.6-12.8-6.6h-11.5c-4.3,0-7.7,1.3-7.7,7v12.3c0,5.7,3.4,7,7.7,7h17.3
			c4.4,0,7.2-1.5,7.2-6.1V73h-16.8v-3.6h21.2V73.9z"/>
		<path fill="#FFFFFF" d="M433.3,52.9h26.2c9.5,0,11,3.1,11,9.3v2.7c0,4.6-2.6,5.9-6,6.2v0.1c4.5,0.8,5.6,3.2,5.6,6.2v8.4h-4.2v-7.2
			c0-5.1-2.5-5.7-6.5-5.7h-21.6v12.9h-4.4V52.9z M459,69.1c4.9,0,7-1.3,7-4.8v-3c0-3.7-1.6-4.8-8.1-4.8h-20.2v12.6H459z"/>
		<path fill="#FFFFFF" d="M477.4,64.8c0-8.3,2.8-12.3,11.7-12.3h18.9c8.9,0,11.7,4,11.7,12.3v9c0,8.3-2.8,12.3-11.7,12.3h-18.9
			c-8.9,0-11.7-4-11.7-12.3V64.8z M515.2,63.1c0-5.7-3.4-7-7.7-7h-18c-4.3,0-7.7,1.3-7.7,7v12.3c0,5.7,3.4,7,7.7,7h18
			c4.3,0,7.7-1.3,7.7-7V63.1z"/>
		<path fill="#FFFFFF" d="M527.4,52.9h4.4v24.5c0,3.2,1.1,5,7.1,5h15.4c6,0,7.1-1.9,7.1-5V52.9h4.4v24.5c0,6.7-3.3,8.6-11.7,8.6
			h-15.1c-8.3,0-11.7-1.9-11.7-8.6V52.9z"/>
		<path fill="#FFFFFF" d="M574.6,52.9h27c6,0,9.4,1.3,9.4,8.9c0,7.3-0.6,11-10.2,11H579v12.9h-4.4V52.9z M606.5,61.3
			c0-3.9-2.1-4.8-6-4.8H579v12.6h21.9c3.5,0,5.6-1.3,5.6-4.7V61.3z"/>
	</g>
</g>
</svg>
